<svg width="383" height="78" viewBox="0 0 383 78" fill="none" xmlns="http://www.w3.org/2000/svg">
<path fill-rule="evenodd" clip-rule="evenodd" d="M124.339 52.5921C123.738 54.9763 122.926 57.2297 121.904 59.3523C119.425 64.4973 115.896 68.4659 111.316 71.258C106.767 74.0188 101.575 75.3991 95.7395 75.3991C89.9043 75.3991 84.7279 74.0658 80.2103 71.3992C75.6927 68.7012 72.1633 64.8581 69.6222 59.8699C68.0173 56.6802 66.8998 53.189 66.2699 49.3963V74.5168H49.8466V45.9054H25.5174V74.5168H9V6.00003H25.5174V33.1997H49.8466V6.00003H66.2699V31.0803C66.8593 27.4678 67.8826 24.139 69.3398 21.0939C71.8182 15.9489 75.3476 11.9803 79.9279 9.18818C84.5396 6.39606 89.7788 5 95.6454 5C101.449 5 106.626 6.38038 111.175 9.14113C115.724 11.9019 119.253 15.8391 121.763 20.9527C122.852 23.131 123.71 25.4476 124.339 27.9024V5.72809H151.303C159.428 5.72809 165.781 7.53199 170.361 11.1398C174.942 14.7476 177.232 19.8456 177.232 26.4337C177.232 31.2023 176.259 35.1552 174.314 38.2924C172.401 41.4296 169.389 43.9708 165.279 45.9158L179.585 73.539V74.2449H161.891L149.797 50.057H140.856V74.2449H124.339V52.5921ZM108.822 38.7408C108.822 31.933 107.677 26.7723 105.386 23.2586C103.128 19.7135 99.8806 17.941 95.6454 17.941C87.3631 17.941 82.9867 24.1527 82.5161 36.5761L82.4691 41.6113C82.4691 48.325 83.5828 53.4857 85.8102 57.0935C88.0376 60.7013 91.3474 62.5052 95.7395 62.5052C99.912 62.5052 103.128 60.7327 105.386 57.1876C107.645 53.6425 108.79 48.5446 108.822 41.8937V38.7408ZM231.469 61.8111H264.222V74.5168H210.857V65.811L243.516 18.7528H210.669V6H263.892V14.4705L231.469 61.8111ZM382.215 76.5168H365.792L341.51 33.882V76.5168H324.992V8H341.51L365.745 50.6348V8H382.215V76.5168ZM320.532 52.234C321.308 46.5761 320.669 40.568 318.613 34.2096L317.644 31.2095C315.588 24.9503 312.569 19.7935 308.588 15.739C304.627 11.6451 300.058 8.98412 294.881 7.75619C289.703 6.52826 284.353 6.80677 278.831 8.59173C273.248 10.396 268.692 13.3357 265.163 17.4108C261.663 21.4762 259.525 26.3379 258.75 31.9958C257.994 37.6142 258.648 43.6175 260.713 50.0058L261.9 53.6775C264.007 59.7884 267.021 64.8311 270.944 68.8056C274.896 72.7705 279.436 75.3419 284.564 76.5198C289.683 77.6678 295.019 77.3445 300.571 75.5499C306.123 73.7553 310.639 70.845 314.119 66.8191C317.618 62.7536 319.756 57.8919 320.532 52.234ZM293.715 22.9696C296.975 25.6086 299.651 30.167 301.745 36.6449L302.715 39.645C304.73 45.9832 305.209 51.1862 304.15 55.2541C303.091 59.3221 300.576 61.9976 296.606 63.2809C292.426 64.6316 288.722 63.9331 285.493 61.1852C282.264 58.4373 279.617 53.8692 277.552 47.4809L276.049 42.6753C272.676 30.7093 274.93 23.4527 282.81 20.9055C286.84 19.603 290.475 20.291 293.715 22.9696ZM184.661 76.5168H201.132V8H184.661V76.5168ZM151.303 37.3042H140.856V18.4809H151.303C154.409 18.4809 156.762 19.3279 158.362 21.022C159.962 22.6847 160.762 24.9906 160.762 27.9396C160.762 30.8886 159.962 33.1944 158.362 34.8571C156.793 36.4885 154.44 37.3042 151.303 37.3042Z" fill="#F9D94A"/>
<path fill-rule="evenodd" clip-rule="evenodd" d="M104.699 69.9802L104.696 69.9823C99.8031 72.9518 94.244 74.4148 88.078 74.4148C81.9252 74.4148 76.3887 73.0051 71.5282 70.1361L71.5238 70.1335L71.5193 70.1308C67.2913 67.6057 63.8797 64.1508 61.2855 59.807V73.5324H40.8466V44.921H20.5331V73.5324H0V1H20.5331V28.1997H40.8466V1H61.2855V14.5908C63.8003 10.3689 67.1124 6.98639 71.2214 4.48161L71.2266 4.47844C76.1794 1.47983 81.7842 0 87.9839 0C94.1207 0 99.6636 1.46404 104.555 4.4325C108.386 6.75781 111.534 9.85543 114 13.693V1H142.972C151.374 1 158.223 2.864 163.273 6.84223C168.404 10.8836 170.909 16.6008 170.909 23.7134C170.909 28.7454 169.883 33.0895 167.694 36.6236C165.848 39.6475 163.136 42.113 159.657 44.0588L173.262 70.3297V73.5324H152.319L140.225 49.3445H134.533V73.5324H114V60.8935C111.572 64.6422 108.471 67.681 104.699 69.9802ZM114 56.8529C111.536 61.7592 108.087 65.5635 103.654 68.2658C99.1054 71.0266 93.9133 72.407 88.078 72.407C82.2428 72.407 77.0664 71.0736 72.5488 68.407C68.0312 65.709 64.5019 61.8659 61.9607 56.8777C61.7252 56.4096 61.5001 55.9349 61.2855 55.4537V18.9531C61.4128 18.6669 61.5437 18.3831 61.6784 18.1017C64.1568 12.9567 67.6861 8.98813 72.2665 6.196C76.8782 3.40388 82.1173 2.00782 87.9839 2.00782C93.7878 2.00782 98.9642 3.38819 103.513 6.14894C108.001 8.87277 111.497 12.7418 114 17.756V56.8529ZM116.008 57.3214V71.5246H132.525V47.3367H141.466L153.56 71.5246H171.254V70.8188L156.948 43.1956C157.568 42.9023 158.163 42.5954 158.733 42.275C161.942 40.4705 164.359 38.2363 165.984 35.5721C167.929 32.4349 168.901 28.482 168.901 23.7134C168.901 17.1253 166.611 12.0273 162.031 8.41952C157.45 4.81172 151.098 3.00782 142.972 3.00782H116.008V17.2861C118.633 22.6311 119.936 28.7035 119.968 35.4567L119.968 35.4615V38.6191C119.968 45.5521 118.681 51.7721 116.051 57.2315C116.037 57.2615 116.022 57.2915 116.008 57.3214ZM116.008 22.6099C117.287 26.5182 117.938 30.8037 117.96 35.4662V38.6191C117.96 43.4615 117.309 47.9002 116.008 51.9353V22.6099ZM59.2777 49.6206V24.8263C58.4311 28.2217 58.0078 31.8938 58.0078 35.8427V39.7015C58.0763 43.2273 58.4996 46.5337 59.2777 49.6206ZM56 35.8427C56 29.4323 57.0769 23.6495 59.2777 18.5334V3.00782H42.8544V30.2075H18.5253V3.00782H2.00782V71.5246H18.5253V42.9132H42.8544V71.5246H59.2777V55.8747C57.1962 51.0521 56.1154 45.6636 56.0004 39.7405L56 39.721V35.8427ZM96.0372 21.3541L96.0317 21.3453C94.1449 18.3842 91.5394 16.9567 87.9839 16.9567C84.427 16.9567 81.9054 18.2459 80.1313 20.764C78.2704 23.4053 77.0938 27.6 76.8621 33.6315L76.8154 38.6285C76.8165 45.1628 77.9094 49.8916 79.8572 53.0465C81.7032 56.0365 84.3517 57.5052 88.078 57.5052C91.5583 57.5052 94.1382 56.0882 96.0317 53.1165C98 50.0274 99.1214 45.3675 99.1524 38.8963V35.7486C99.1524 29.1102 98.0259 24.4051 96.0429 21.3628L96.0372 21.3541ZM101.16 38.9015C101.129 45.5524 99.9838 50.6504 97.725 54.1954C95.4662 57.7405 92.2505 59.513 88.078 59.513C83.6859 59.513 80.3762 57.7091 78.1488 54.1013C75.9213 50.4935 74.8076 45.3328 74.8076 38.6191L74.8547 33.5839C75.3253 21.1605 79.7017 14.9488 87.9839 14.9488C92.2192 14.9488 95.4662 16.7214 97.725 20.2664C100.015 23.7801 101.16 28.9408 101.16 35.7486V38.9015ZM320.008 62.1312V73.5246H336.525V30.8899L360.807 73.5246H377.231V5.00782H360.76V47.6426L336.525 5.00782H320.008V18.6244C321.154 20.8311 322.143 23.2036 322.976 25.7382L322.977 25.7428L323.948 28.7474C326.08 35.3443 326.769 41.6586 325.946 47.6621C325.192 53.1582 323.218 57.9974 320.008 62.1312ZM318 19.1211C316.332 16.0033 314.336 13.261 312.012 10.8943C308.052 6.80038 303.482 4.13944 298.305 2.91151C293.127 1.68358 287.777 1.96209 282.255 3.74704C276.672 5.55129 272.117 8.49097 268.587 12.5661C265.087 16.6315 262.95 21.4932 262.174 27.1511C261.418 32.7695 262.073 38.7728 264.137 45.1611L265.324 48.8328C267.431 54.9437 270.446 59.9864 274.368 63.9609C278.32 67.9258 282.86 70.4972 287.989 71.6751C293.107 72.8231 298.443 72.4998 303.995 70.7052C309.548 68.9106 314.064 66.0003 317.543 61.9744C317.698 61.7943 317.85 61.6127 318 61.4296V19.1211ZM318 15.1774C316.651 13.1058 315.135 11.2096 313.45 9.49303C309.244 5.14672 304.343 2.28007 298.768 0.95788C293.201 -0.362435 287.477 -0.0507953 281.637 1.83653C275.738 3.74325 270.86 6.87509 267.069 11.2516L267.065 11.2562C263.297 15.6343 261.01 20.8628 260.185 26.8783L260.184 26.8834C259.381 32.849 260.087 39.157 262.227 45.7786L263.42 49.4689L263.426 49.4873C265.615 55.8374 268.775 61.1518 272.939 65.3712L272.942 65.3748L272.946 65.3784C277.147 69.5932 282.018 72.364 287.539 73.6319L287.544 73.6331L287.549 73.6342C293.056 74.8694 298.758 74.508 304.613 72.6157C309.939 70.8941 314.419 68.1789 318 64.4527V75.5324H338.533V38.4722L359.64 75.5324H379.238V3H358.752V40.0474L337.693 3H318V15.1774ZM320.008 58.6238V23.4466C320.386 24.3911 320.739 25.3639 321.068 26.3648L322.038 29.3649C324.093 35.7233 324.732 41.7314 323.956 47.3893C323.383 51.5686 322.067 55.3134 320.008 58.6238ZM295.86 19.6723L295.868 19.6789L295.876 19.6854C298.698 21.9705 301.217 26.101 303.259 32.4177L304.227 35.4128C306.188 41.58 306.554 46.3588 305.631 49.9036C304.743 53.3136 302.724 55.4553 299.412 56.5257C295.867 57.6717 292.895 57.0888 290.219 54.8114C287.395 52.4085 284.901 48.245 282.89 42.0277L281.398 37.2585C279.763 31.4481 279.593 27.0948 280.551 24.0092C281.465 21.0675 283.468 19.0653 286.852 17.9714C290.235 16.8779 293.154 17.4349 295.86 19.6723ZM307.574 50.4095C308.633 46.3415 308.155 41.1385 306.139 34.8003L305.169 31.8002C303.076 25.3224 300.399 20.7639 297.139 18.1249C293.899 15.4463 290.265 14.7583 286.235 16.0609C278.354 18.608 276.1 25.8646 279.473 37.8306L280.977 42.6362C283.041 49.0245 285.688 53.5926 288.917 56.3405C292.146 59.0884 295.851 59.787 300.03 58.4362C304 57.153 306.515 54.4774 307.574 50.4095ZM258.568 56.8111V73.5324H201.188V62.1904L232.017 17.7684H201V1H258.239V12.1L227.616 56.8111H258.568ZM223.808 58.8189L256.231 11.4783V3.00782H203.008V15.7606H235.854L203.196 62.8189V71.5246H256.56V58.8189H223.808ZM177 75.5324H197.486V3H177V75.5324ZM195.478 5.00782V73.5246H179.008V5.00782H195.478ZM148.584 30.7447L148.584 30.7452C147.521 31.8504 145.779 32.5761 142.972 32.5761H134.533V17.7684H142.972C145.717 17.7684 147.465 18.5087 148.571 19.6804L148.578 19.6872L148.584 19.6939C149.732 20.8867 150.423 22.639 150.423 25.2193C150.423 27.7996 149.732 29.552 148.584 30.7447ZM132.525 15.7606V34.5839H142.972C146.109 34.5839 148.462 33.7682 150.031 32.1369C151.631 30.4742 152.431 28.1683 152.431 25.2193C152.431 22.2703 151.631 19.9645 150.031 18.3018C148.431 16.6077 146.078 15.7606 142.972 15.7606H132.525Z" fill="black"/>
</svg>
